<svg xmlns="http://www.w3.org/2000/svg" xmlns:xlink="http://www.w3.org/1999/xlink" version="1.1" style="" xml:space="preserve" width="70" height="87.5"><rect id="backgroundrect" width="100%" height="100%" x="0" y="0" fill="none" stroke="none"/><style type="text/css">
	.st0{stroke:#000000;stroke-width:2;stroke-linecap:round;stroke-linejoin:round;stroke-miterlimit:10;}
</style><g class="currentLayer" style=""><title>Layer 1</title><g id="svg_1" class=""><g id="svg_2"><g id="svg_3"><path d="M35.932012929983095,0.7692309453984139 c-18.514473391355985,0 -33.583159557777414,14.44781472444196 -33.583159557777414,32.18608012496901 c0,17.309803873513232 30.922947523277177,51.46674429597825 32.22624655217051,52.90642095782038 C34.91432826504736,86.23883267226618 35.41428944860183,86.46153634816211 35.932012929983095,86.46153634816211 s0.999813458390469,-0.2227036758959131 1.3390416205227518,-0.59980431997431 c1.3211702354386077,-1.4396768332267378 32.22624655217051,-35.59661708430714 32.22624655217051,-52.90642095782038 C69.49730110267635,15.21704566984037 54.44648632133907,0.7692309453984139 35.932012929983095,0.7692309453984139 zM35.932012929983095,49.81960287609161 c-9.676776914162135,0 -17.550402703133805,-7.5752750354484535 -17.550402703133805,-16.864291805724196 c0,-9.271861342118726 7.873625788971673,-16.82998129217938 17.550402703133805,-16.82998129217938 c9.658905529077993,0 17.532531318049667,7.558119950060653 17.532531318049667,16.82998129217938 C53.46454424803275,42.24432766925856 45.59091845906108,49.81960287609161 35.932012929983095,49.81960287609161 z" id="svg_4"/></g></g></g><text x="0" y="109" fill="#000000" font-size="5px" font-weight="bold" font-family="'Helvetica Neue', Helvetica, Arial-Unicode, Arial, Sans-serif" id="svg_5" class="">Created by Graphic Tigers</text><text x="0" y="125.07692337036133" fill="#000000" font-size="5px" font-weight="bold" font-family="'Helvetica Neue', Helvetica, Arial-Unicode, Arial, Sans-serif" id="svg_6" class="">from the Noun Project</text></g></svg>